<?xml version="1.0" encoding="UTF-8"?>
<svg version="1.1" xmlns="http://www.w3.org/2000/svg" width="200" height="200">
<path d="M0 0 C4.91375196 0.1348353 9.40081889 1.28038056 14.1015625 2.6484375 C15.00382568 2.90447754 15.90608887 3.16051758 16.83569336 3.42431641 C24.82898244 5.82071839 32.27489675 9.15781635 39.66455078 13.02099609 C46.2693411 16.30516681 52.12239302 17.24388326 59.4765625 16.2734375 C65.18794591 14.26507219 69.80519944 11.07780942 74.6640625 7.5234375 C78.60597667 4.69366212 81.46612847 3.07694989 86.4765625 3.2734375 C89.40002807 4.63772143 91.20407159 6.00094659 93.4765625 8.2734375 C94.69644443 11.69525172 94.61615233 15.0703961 94.63769531 18.67504883 C94.64730286 19.97352249 94.6569104 21.27199615 94.66680908 22.6098175 C94.67165763 24.02503279 94.67593632 25.44025013 94.6796875 26.85546875 C94.68544402 28.31271871 94.69120169 29.76996867 94.69696045 31.22721863 C94.70745425 34.28112133 94.7133074 37.33499783 94.71679688 40.38891602 C94.72227602 44.28935464 94.74629816 48.18944321 94.77476883 52.08977222 C94.79345478 55.10020437 94.79860398 58.11055321 94.80013275 61.12103844 C94.80314675 62.55826416 94.81113272 63.99548885 94.82431793 65.43265724 C94.94692254 79.82440488 94.94692254 79.82440488 91.4765625 85.2734375 C87.51806394 89.18469303 84.88365778 89.77965039 79.37890625 89.80688477 C78.33647263 89.81980812 78.33647263 89.81980812 77.27297974 89.83299255 C74.98629017 89.85561056 72.70083021 89.84892279 70.4140625 89.83984375 C68.81892535 89.84508093 67.2237913 89.85135776 65.62866211 89.85862732 C62.28972778 89.86902351 58.95121986 89.86448116 55.61230469 89.84985352 C51.33805915 89.83265886 47.06515706 89.85617188 42.7910614 89.89134312 C39.49840424 89.91332515 36.20606823 89.91187396 32.9133606 89.9035778 C31.33772304 89.90275886 29.76206177 89.90961153 28.18649292 89.92434883 C25.98156615 89.94181336 23.77904947 89.92724208 21.57421875 89.90454102 C20.32133057 89.90357925 19.06844238 89.90261749 17.77758789 89.90162659 C13.56103955 89.09921239 12.07534426 87.63097424 9.4765625 84.2734375 C8.65608646 78.75739928 9.19312495 75.82335593 12.47460938 71.15039062 C12.88775391 70.59287109 13.30089844 70.03535156 13.7265625 69.4609375 C21.13761945 58.74323112 24.7591736 47.40238724 23.4765625 34.2734375 C21.25083369 25.84227998 17.2587814 19.82836937 9.7890625 15.2109375 C4.78803596 12.36072839 -0.336774 9.76745016 -5.5234375 7.2734375 C-5.6484375 4.8984375 -5.6484375 4.8984375 -5.5234375 2.2734375 C-3.5234375 0.2734375 -3.5234375 0.2734375 0 0 Z " fill="#020202" transform="translate(55.5234375,54.7265625)"/>
<path d="M0 0 C5.59802514 0.65859119 10.84713703 1.90484379 16.25 3.5 C17.11971436 3.75410645 17.98942871 4.00821289 18.88549805 4.27001953 C25.22584099 6.21957339 30.93053931 8.83744117 36.8125 11.875 C45.04059322 15.99959436 51.69793976 18.01426549 61 16 C65.96134088 14.19486097 70.43283875 11.63053349 75 9 C75.99 8.67 76.98 8.34 78 8 C76.99531937 10.59151265 75.94859227 13.10343858 74.7109375 15.59375 C69.0611334 27.8845519 68.84905387 42.45282347 73.1875 55.25 C75.31390794 60.77258519 77.81951033 66.00595452 81 71 C76.31486863 69.1431406 71.67610386 67.1829188 67.03515625 65.21875 C66.03355469 64.8165625 65.03195313 64.414375 64 64 C63.09507813 63.62617187 62.19015625 63.25234375 61.2578125 62.8671875 C56.7527157 61.66798907 52.45706876 61.61675545 47.8125 61.625 C46.40738159 61.62741699 46.40738159 61.62741699 44.97387695 61.62988281 C37.98076626 61.75383751 32.2682257 62.76760486 26 66 C25.19820312 66.3815625 24.39640625 66.763125 23.5703125 67.15625 C21.69412457 68.06512997 19.84331397 69.02617375 18 70 C19.27574772 66.66659466 20.73536578 63.5713359 22.4375 60.4375 C27.98146195 49.30036934 30.69272835 35.68972044 26.93359375 23.55859375 C21.26787354 11.2236879 11.74107496 6.42530008 0 1 C0 0.67 0 0.34 0 0 Z " fill="#FAFAFA" transform="translate(55,59)"/>
</svg>
